<?xml version="1.0" encoding="UTF-8"?>
<svg width="308px" height="122px" viewBox="0 0 308 122" version="1.1" xmlns="http://www.w3.org/2000/svg" xmlns:xlink="http://www.w3.org/1999/xlink">
    <!-- Generator: Sketch 63.1 (92452) - https://sketch.com -->
    <title>Logo Wordmark reduced</title>
    <desc>Created with Sketch.</desc>
    <defs>
        <polygon id="path-1" points="9.951275 0.275804878 19.073725 9.38165854 0.8299 18.4885854"></polygon>
        <polygon id="path-3" points="18.5201 0.828487805 9.398725 19.0401951 0.276275 9.93434146"></polygon>
        <path d="M7.82641925,6.76623415 L8.21599925,7.13593073 L10.1647593,8.98419902 C12.0249823,7.41852878 14.8069855,7.46789463 16.6115128,9.18033171 C18.5479103,11.0179112 18.6254823,14.0746556 16.7847705,16.007758 C14.9440588,17.9408605 11.882104,18.0183005 9.9457065,16.180721 C8.1409105,14.4680263 7.950872,11.696241 9.42371875,9.76225854 L7.47534575,7.91374341 L7.0857765,7.54405756 L7.82641925,6.76623415 Z M10.766039,9.88442829 L10.3592698,10.3107024 C9.12882475,11.8180137 9.251192,14.0409688 10.6863493,15.4028976 C12.192435,16.8321249 14.5739578,16.7718985 16.0056213,15.2683756 C17.3418463,13.8650868 17.3783748,11.7005015 16.1527995,10.2560995 L16.0166615,10.1041707 L15.87087,9.95815512 C14.4377123,8.59813659 12.2118495,8.58681463 10.766039,9.88442829 Z M1.59324675,0.851153171 L1.98282675,1.22084976 L5.099413,4.17839024 L5.48898225,4.5480761 L4.7483395,5.32589951 L4.3587595,4.95620293 L1.24217325,1.99866244 L0.852604,1.62897659 L1.59324675,0.851153171 Z" id="path-5"></path>
        <path d="M13.7159787,13.8398566 L14.0866172,14.2284624 L17.0517682,17.3373093 L17.4224067,17.7259044 L16.643881,18.4659307 L16.2732318,18.0773249 L13.3080808,14.9684888 L12.9374423,14.5798829 L13.7159787,13.8398566 Z M1.85429975,2.18149854 C3.7891815,0.34232 6.85120075,0.417238049 8.6935035,2.34882732 C10.4103538,4.14887805 10.4621042,6.92610439 8.89529175,8.78444976 L8.89529175,8.78444976 L11.1214662,11.1196156 L11.4921155,11.5082215 L10.713579,12.2482478 L10.3429297,11.859642 L8.11565875,9.5255278 C6.179616,10.996759 3.403536,10.8091151 1.68668575,9.00906439 C-0.155617,7.07747512 -0.08057125,4.02066634 1.85429975,2.18149854 Z M7.61627825,2.80765073 C6.16842525,1.5853522 4.00017175,1.6236 2.5955875,2.95871024 C1.09068425,4.38917171 1.03231175,6.76669561 2.46522225,8.26903805 C3.82989175,9.69984293 6.05503425,9.8208322 7.5638505,8.59341463 L7.5638505,8.59341463 L7.9875725,8.19099707 C9.291698,6.74674537 9.28039975,4.52045268 7.91497775,3.08885366 L7.91497775,3.08885366 L7.76858425,2.94343902 L7.61627825,2.80765073 Z" id="path-7"></path>
        <path d="M5.1057985,9.0996078 L5.123708,9.63589268 L5.21487875,12.3557473 C7.64100325,12.5422429 9.5893655,14.5255805 9.6723125,17.009842 C9.7613225,19.6755015 7.6688565,21.9084693 4.998664,21.9973171 C2.32846075,22.0861756 0.09168675,19.9972702 0.0026875,17.3316215 C-0.08027025,14.8472634 1.73159925,12.7387512 4.14002925,12.3914946 L4.04931,9.67165073 L4.0314005,9.13535512 L5.1057985,9.0996078 Z M5.055295,13.4206868 L4.37895875,13.4423971 C2.464072,13.6748888 1.01160725,15.3348371 1.0770855,17.2958634 C1.1463155,19.3691541 2.886031,20.9938488 4.962845,20.9247473 C6.90120975,20.860239 8.4481455,19.3430332 8.589508,17.4553688 L8.599226,17.2517561 L8.5979145,17.0456 C8.532533,15.0876215 6.977309,13.5297102 5.055295,13.4206868 Z M4.81930025,0.519006829 L4.837199,1.05529171 L4.9804535,5.3455922 L4.998363,5.88187707 L3.92395425,5.91763512 L3.9060555,5.38135024 L3.762801,1.09104976 L3.7448915,0.554754146 L4.81930025,0.519006829 Z" id="path-9"></path>
        <path d="M3.92395425,16.6189502 L4.998363,16.6547083 L4.9804535,17.1909932 L4.837199,21.4812937 L4.81930025,22.0175785 L3.7448915,21.9818312 L3.762801,21.4455356 L3.9060555,17.1552351 L3.92395425,16.6189502 Z M4.77089088,0.536947856 L4.998664,0.539268293 C7.6688565,0.628126829 9.7613225,2.86107317 9.6723125,5.52672195 C9.5893655,8.01100488 7.64100325,9.99434244 5.21487875,10.180838 L5.21487875,10.180838 L5.123708,12.9006927 L5.1057985,13.4369776 L4.0314005,13.4012302 L4.04931,12.8649346 L4.14002925,10.1450907 C1.73159925,9.79783415 -0.08027025,7.68932195 0.0026875,5.20498537 C0.09168675,2.53933659 2.32846075,0.450409756 4.998664,0.539268293 L4.77089088,0.536947856 Z M4.962845,1.61179512 C2.886031,1.54268293 1.1463155,3.16746341 1.0770855,5.24072195 C1.01160725,7.20174829 2.464072,8.86169659 4.37895875,9.09418829 L4.37895875,9.09418829 L5.055295,9.11589854 C6.977309,9.00687512 8.532533,7.4489639 8.5979145,5.49098537 L8.5979145,5.49098537 L8.599226,5.28482927 L8.589508,5.08124878 C8.4481455,3.19354146 6.90120975,1.67629268 4.962845,1.61179512 Z" id="path-11"></path>
        <path d="M11.5445755,6.79134634 L12.288368,7.56615415 L11.9003037,7.93742829 L8.79574675,10.9075571 L8.6814205,11.0185659 C10.1611257,12.9465278 9.98205225,15.7182595 8.18458775,17.4378976 C6.25567225,19.2833005 3.19342725,19.2182556 1.34487875,17.2926117 C-0.50366975,15.3669785 -0.438514,12.3099444 1.49041225,10.4645415 C3.28807025,8.74472098 6.07006275,8.68418341 7.936639,10.2425883 L8.05195425,10.1327385 L11.1565005,7.16260976 L11.5445755,6.79134634 Z M2.23420475,11.23936 C0.73393475,12.6746722 0.68325925,15.0523678 2.121018,16.5500849 C3.55877675,18.047802 5.94052525,18.0983912 7.44079525,16.663079 C8.94106525,15.2277668 8.99174075,12.8500712 7.553982,11.3523541 C6.11622325,9.85463707 3.73447475,9.8040478 2.23420475,11.23936 Z M17.753668,0.851078049 L18.4974713,1.62589659 L18.1093962,1.99716 L15.00485,4.96729951 L14.6167857,5.33856293 L13.8729825,4.56374439 L14.2610467,4.19248098 L17.3656038,1.2223522 L17.753668,0.851078049 Z" id="path-13"></path>
        <path d="M4.5748775,14.9251112 L5.35037175,15.6683141 L4.9781315,16.0554068 L2.00024175,19.1520946 L1.62801225,19.5391766 L0.852518,18.7959737 L1.22475825,18.408881 L4.20263725,15.3121932 L4.5748775,14.9251112 Z M10.5306463,8.73173561 L11.3061405,9.47493854 L10.933911,9.86203122 L7.95602125,12.958719 L7.583781,13.345801 L6.8082975,12.602598 L7.180527,12.2155161 L10.1584168,9.11882829 L10.5306463,8.73173561 Z M11.022792,2.02143512 C12.8730068,0.0974009756 15.9353055,0.0350068293 17.8626193,1.8820839 C19.789933,3.72915024 19.8524335,6.78623805 18.002208,8.7102722 C16.1519933,10.6343063 13.0896945,10.6967005 11.1623808,8.84962341 C9.235067,7.00255707 9.1725665,3.94546927 11.022792,2.02143512 Z M17.1181495,2.6562478 C15.6191265,1.21963707 13.2373458,1.26816585 11.7982755,2.76463805 C10.359216,4.26111024 10.4078275,6.63883805 11.9068505,8.07545951 C13.4058735,9.51207024 15.7876543,9.46354146 17.2267245,7.96706927 C18.665784,6.47059707 18.6171725,4.09286927 17.1181495,2.6562478 Z" id="path-15"></path>
        <path d="M16.1900375,0.805629268 C18.861305,0.758484878 21.0651625,2.88206439 21.112355,5.54877561 C21.1595475,8.21548683 19.0323375,10.4155083 16.36107,10.4626634 C13.8714023,10.506599 11.7877943,8.66484488 11.4778395,6.25517951 L9.68315925,6.28717073 L9.14574525,6.29665756 L9.12673925,5.22365854 L9.66415325,5.21417171 L11.4590163,5.18107512 C11.6842503,2.7627922 13.7009718,0.849564878 16.1900375,0.805629268 Z M16.209065,1.87863902 C14.2164558,1.91380683 12.613061,3.48921073 12.5175903,5.44785463 L12.5260828,5.94754439 C12.6882573,7.90420293 14.3476488,9.42486439 16.34215,9.38965366 C18.4198025,9.35298341 20.0742275,7.64185561 20.03757,5.56774927 C20.000805,3.4936322 18.2867175,1.84196878 16.209065,1.87863902 Z M5.9022445,5.28056878 L5.9212505,6.3535678 L5.38382575,6.36305463 L1.084503,6.43893854 L0.547089,6.44842537 L0.528083,5.37542634 L1.065497,5.36593951 L5.3648305,5.29005561 L5.9022445,5.28056878 Z" id="path-17"></path>
        <path d="M4.78238935,0.536803858 L5.01015575,0.539665366 C7.49822175,0.628373659 9.480167,2.57778829 9.6615195,4.99991317 L9.6615195,4.99991317 L11.3121605,5.05977463 L11.8493165,5.07892 L11.8109498,6.1514039 L11.2737938,6.13225854 L9.6231205,6.0741678 C9.269252,8.47732976 7.15299625,10.280761 4.66484425,10.192042 C1.99486675,10.0968517 -0.092278,7.85892585 0.00308525,5.19349171 C0.09843775,2.52805756 2.34017825,0.44446439 5.01015575,0.539665366 L4.78238935,0.536803858 Z M4.7652815,1.61034634 L4.56130025,1.61956488 C2.670085,1.75620098 1.1466165,3.2968878 1.07739725,5.23179317 C1.003233,7.30490146 2.62655825,9.04552 4.703211,9.11955805 C6.660829,9.18935707 8.3224565,7.75324 8.56864225,5.85171024 L8.56864225,5.85171024 L8.5940445,5.15017854 C8.48593175,3.2344722 6.9305035,1.68198049 4.971789,1.61214927 L4.971789,1.61214927 L4.7652815,1.61034634 Z M15.0722633,5.19383512 L15.6094193,5.21298049 L19.9066888,5.36619707 L20.4438448,5.38534244 L20.405478,6.45783707 L19.8683113,6.43868098 L15.5710525,6.28547512 L15.0338965,6.26631902 L15.0722633,5.19383512 Z" id="path-19"></path>
    </defs>
    <g id="Logo-Wordmark-reduced" stroke="none" stroke-width="1" fill="none" fill-rule="evenodd">
        <g id="Group" transform="translate(22.000000, 20.000000)">
            <path d="M128.065329,38.3082383 C133.844798,38.3082383 137.334497,34.4662676 137.851897,30.3160585 L133.030168,30.2940414 C132.578819,32.7049056 130.685355,34.0919782 128.142389,34.0919782 C124.718742,34.0919782 122.395946,31.5490118 122.395946,26.7272835 C122.395946,22.0376573 124.685716,19.3625888 128.175415,19.3625888 C130.784432,19.3625888 132.666888,20.870755 133.030168,23.3476702 L137.851897,23.3476702 C137.224412,18.1406439 133.283364,15.1463286 128.065329,15.1463286 C122.109724,15.1463286 117.563209,19.3515803 117.563209,26.7272835 C117.563209,34.0809696 122.032665,38.3082383 128.065329,38.3082383 Z M148.827406,38.3302554 C153.957372,38.3302554 157.149841,34.81854 157.149841,29.6115137 C157.149841,24.3714619 153.957372,20.870755 148.827406,20.870755 C143.697439,20.870755 140.50497,24.3714619 140.50497,29.6115137 C140.50497,34.81854 143.697439,38.3302554 148.827406,38.3302554 Z M148.849423,34.6974463 C146.482593,34.6974463 145.271656,32.5287694 145.271656,29.5784881 C145.271656,26.6282069 146.482593,24.4485214 148.849423,24.4485214 C151.172219,24.4485214 152.383155,26.6282069 152.383155,29.5784881 C152.383155,32.5287694 151.172219,34.6974463 148.849423,34.6974463 Z M164.899852,38 L164.899852,28.4336029 C164.899852,26.3529941 166.419026,24.9218875 168.488627,24.9218875 C169.138129,24.9218875 170.029818,25.0319726 170.470159,25.1750833 L170.470159,21.0138656 C170.051835,20.914789 169.468384,20.8487379 168.995018,20.8487379 C167.101554,20.8487379 165.549354,21.9495892 164.932877,24.0412065 L164.756741,24.0412065 L164.756741,21.0909252 L160.210225,21.0909252 L160.210225,38 L164.899852,38 Z M180.520943,38.3302554 C185.650909,38.3302554 188.843378,34.81854 188.843378,29.6115137 C188.843378,24.3714619 185.650909,20.870755 180.520943,20.870755 C175.390976,20.870755 172.198507,24.3714619 172.198507,29.6115137 C172.198507,34.81854 175.390976,38.3302554 180.520943,38.3302554 Z M180.54296,34.6974463 C178.17613,34.6974463 176.965193,32.5287694 176.965193,29.5784881 C176.965193,26.6282069 178.17613,24.4485214 180.54296,24.4485214 C182.865756,24.4485214 184.076692,26.6282069 184.076692,29.5784881 C184.076692,32.5287694 182.865756,34.6974463 180.54296,34.6974463 Z M196.593389,38 L196.593389,28.2244411 C196.604397,26.0447557 197.903402,24.7677683 199.796866,24.7677683 C201.679321,24.7677683 202.813198,26.0007217 202.80219,28.070322 L202.80219,38 L207.491816,38 L207.491816,27.233675 C207.491816,23.2926277 205.180028,20.870755 201.657304,20.870755 C199.147363,20.870755 197.330959,22.1037083 196.571372,24.074232 L196.373218,24.074232 L196.373218,21.0909252 L191.903762,21.0909252 L191.903762,38 L196.593389,38 Z M216.001414,38.3192469 C218.500346,38.3192469 220.118598,37.2294041 220.944236,35.6551869 L221.076338,35.6551869 L221.076338,38 L225.523777,38 L225.523777,26.5951813 C225.523777,22.5660659 222.111138,20.870755 218.346227,20.870755 C214.295095,20.870755 211.631035,22.8082531 210.981532,25.8906365 L215.318886,26.2429089 C215.638133,25.1200407 216.639908,24.2944023 218.32421,24.2944023 C219.920444,24.2944023 220.834151,25.0980237 220.834151,26.4850962 L220.834151,26.5511473 C220.834151,27.64099 219.678257,27.7841007 216.738984,28.070322 C213.392397,28.3785603 210.387073,29.5014286 210.387073,33.2773483 C210.387073,36.623936 212.77592,38.3192469 216.001414,38.3192469 Z M217.344453,35.0827443 C215.902337,35.0827443 214.867537,34.411225 214.867537,33.1232291 C214.867537,31.8022076 215.95738,31.1527054 217.608657,30.9215266 C218.632448,30.778416 220.305742,30.5362287 220.867176,30.1619393 L220.867176,31.9563268 C220.867176,33.7286973 219.403044,35.0827443 217.344453,35.0827443 Z M122.726201,71 L122.726201,64.5930459 L125.071014,61.7308327 L131.246789,71 L136.949199,71 L128.483653,58.5493727 L136.850122,48.454567 L131.136704,48.454567 L123.023431,58.3952535 L122.726201,58.3952535 L122.726201,48.454567 L117.959515,48.454567 L117.959515,71 L122.726201,71 Z M146.889906,71.3302554 C152.019872,71.3302554 155.212341,67.81854 155.212341,62.6115137 C155.212341,57.3714619 152.019872,53.870755 146.889906,53.870755 C141.759939,53.870755 138.56747,57.3714619 138.56747,62.6115137 C138.56747,67.81854 141.759939,71.3302554 146.889906,71.3302554 Z M146.911923,67.6974463 C144.545093,67.6974463 143.334156,65.5287694 143.334156,62.5784881 C143.334156,59.6282069 144.545093,57.4485214 146.911923,57.4485214 C149.234719,57.4485214 150.445655,59.6282069 150.445655,62.5784881 C150.445655,65.5287694 149.234719,67.6974463 146.911923,67.6974463 Z M162.962352,71 L162.962352,60.8501517 C162.962352,58.9787046 164.151271,57.7347428 165.71448,57.7347428 C167.255671,57.7347428 168.290472,58.7915599 168.290472,60.4538453 L168.290472,71 L172.836987,71 L172.836987,60.6740155 C172.836987,58.9236621 173.838762,57.7347428 175.545081,57.7347428 C177.042239,57.7347428 178.165107,58.6704663 178.165107,60.5529219 L178.165107,71 L182.843725,71 L182.843725,59.6282069 C182.843725,55.9623723 180.664039,53.870755 177.515605,53.870755 C175.03869,53.870755 173.1122,55.1367339 172.418664,57.074232 L172.242528,57.074232 C171.70311,55.1147169 169.974774,53.870755 167.651978,53.870755 C165.373216,53.870755 163.644879,55.0816913 162.940335,57.074232 L162.742181,57.074232 L162.742181,54.0909252 L158.272725,54.0909252 L158.272725,71 L162.962352,71 Z M191.232238,77.340903 L191.232238,68.291906 L191.375349,68.291906 C192.024851,69.7009956 193.444949,71.2752128 196.17506,71.2752128 C200.028039,71.2752128 203.033363,68.2258549 203.033363,62.5674796 C203.033363,56.7549852 199.895937,53.870755 196.186069,53.870755 C193.356881,53.870755 192.002834,55.5550573 191.375349,56.9311214 L191.166187,56.9311214 L191.166187,54.0909252 L186.542612,54.0909252 L186.542612,77.340903 L191.232238,77.340903 Z M194.688911,67.5433272 C192.432166,67.5433272 191.133161,65.561795 191.133161,62.5454626 C191.133161,59.5291303 192.410149,57.6026406 194.688911,57.6026406 C197.011707,57.6026406 198.24466,59.6171984 198.24466,62.5454626 C198.24466,65.4957439 196.98969,67.5433272 194.688911,67.5433272 Z M210.970519,71.3192469 C213.469451,71.3192469 215.087703,70.2294041 215.913341,68.6551869 L216.045443,68.6551869 L216.045443,71 L220.492882,71 L220.492882,59.5951813 C220.492882,55.5660659 217.080243,53.870755 213.315332,53.870755 C209.2642,53.870755 206.60014,55.8082531 205.950638,58.8906365 L210.287991,59.2429089 C210.607238,58.1200407 211.609013,57.2944023 213.293315,57.2944023 C214.88955,57.2944023 215.803256,58.0980237 215.803256,59.4850962 L215.803256,59.5511473 C215.803256,60.64099 214.647362,60.7841007 211.70809,61.070322 C208.361502,61.3785603 205.356178,62.5014286 205.356178,66.2773483 C205.356178,69.623936 207.745025,71.3192469 210.970519,71.3192469 Z M212.313558,68.0827443 C210.871443,68.0827443 209.836642,67.411225 209.836642,66.1232291 C209.836642,64.8022076 210.926485,64.1527054 212.577762,63.9215266 C213.601554,63.778416 215.274847,63.5362287 215.836282,63.1619393 L215.836282,64.9563268 C215.836282,66.7286973 214.372149,68.0827443 212.313558,68.0827443 Z M231.061071,71.3302554 C235.442459,71.3302554 238.579885,69.0955274 238.590894,65.7599482 C238.579885,63.3160585 236.983651,61.8519263 233.703114,61.1804071 L230.642748,60.5639304 C229.06853,60.2226665 228.485079,59.6832494 228.496088,58.8686195 C228.485079,57.8558364 229.629965,57.1953257 231.083088,57.1953257 C232.712348,57.1953257 233.681097,58.0870152 233.912276,59.1768579 L238.205596,58.9126536 C237.787272,55.7972446 235.277331,53.870755 231.006029,53.870755 C226.679683,53.870755 223.828479,55.8743042 223.839487,59.1328238 C223.828479,61.6647816 225.424713,63.30505 228.727267,63.9655607 L231.655531,64.5490118 C233.130671,64.8462417 233.802191,65.3856588 233.824208,66.2333142 C233.802191,67.2350888 232.712348,67.9506421 231.07208,67.9506421 C229.398786,67.9506421 228.286926,67.2350888 228.000705,65.8590248 L223.388138,66.1012121 C223.828479,69.3377147 226.580607,71.3302554 231.061071,71.3302554 Z M248.476554,71.3302554 C252.857942,71.3302554 255.995368,69.0955274 256.006376,65.7599482 C255.995368,63.3160585 254.399134,61.8519263 251.118597,61.1804071 L248.058231,60.5639304 C246.484013,60.2226665 245.900562,59.6832494 245.911571,58.8686195 C245.900562,57.8558364 247.045448,57.1953257 248.498571,57.1953257 C250.127831,57.1953257 251.09658,58.0870152 251.327759,59.1768579 L255.621079,58.9126536 C255.202755,55.7972446 252.692814,53.870755 248.421512,53.870755 C244.095166,53.870755 241.243962,55.8743042 241.25497,59.1328238 C241.243962,61.6647816 242.840196,63.30505 246.14275,63.9655607 L249.071014,64.5490118 C250.546154,64.8462417 251.217674,65.3856588 251.239691,66.2333142 C251.217674,67.2350888 250.127831,67.9506421 248.487563,67.9506421 C246.814269,67.9506421 245.702409,67.2350888 245.416188,65.8590248 L240.803621,66.1012121 C241.243962,69.3377147 243.99609,71.3302554 248.476554,71.3302554 Z" id="CoronaKompass" fill="#212121" fill-rule="nonzero"></path>
            <g id="Logo">
                <g id="Logo-CoronaKompass" transform="translate(-4.300000, -4.292683)">
                    <path d="M72.5625,48.8292683 C72.5625,63.0541463 61.011625,74.5853659 46.7625,74.5853659 C32.513375,74.5853659 20.9625,63.0541463 20.9625,48.8292683 C20.9625,34.6043902 32.513375,23.0731707 46.7625,23.0731707 C61.011625,23.0731707 72.5625,34.6043902 72.5625,48.8292683 L72.5625,48.8292683 Z" id="Stroke-1" stroke="#000000" stroke-width="2"></path>
                    <g id="Group-5" transform="translate(32.250000, 44.000000)">
                        <mask id="mask-2" fill="white">
                            <use xlink:href="#path-1"></use>
                        </mask>
                        <g id="Clip-4"></g>
                        <polygon id="Fill-3" fill="#DF1642" mask="url(#mask-2)" points="-4.5451 -5.09004878 24.448725 -5.09004878 24.448725 23.854439 -4.5451 23.854439"></polygon>
                    </g>
                    <g id="Group-8" transform="translate(41.925000, 34.341463)">
                        <mask id="mask-4" fill="white">
                            <use xlink:href="#path-3"></use>
                        </mask>
                        <g id="Clip-7"></g>
                        <polygon id="Fill-6" fill="#4BCCE2" mask="url(#mask-4)" points="-5.098725 -4.53736585 23.8951 -4.53736585 23.8951 24.4060488 -5.098725 24.4060488"></polygon>
                    </g>
                    <g id="Group-11" transform="translate(63.425000, 65.463415)">
                        <mask id="mask-6" fill="white">
                            <use xlink:href="#path-5"></use>
                        </mask>
                        <g id="Clip-10"></g>
                        <polygon id="Fill-9" fill="#000000" mask="url(#mask-6)" points="4.93180975 -10.0701941 27.7213475 12.6805317 13.278615 27.0986556 -9.5108905 4.34792976"></polygon>
                    </g>
                    <g id="Group-14" transform="translate(11.825000, 12.878049)">
                        <mask id="mask-8" fill="white">
                            <use xlink:href="#path-7"></use>
                        </mask>
                        <g id="Clip-13"></g>
                        <polygon id="Fill-12" fill="#000000" mask="url(#mask-8)" points="28.3620475 14.3933444 5.1901 -8.73915122 -9.25260025 5.67895122 13.919358 28.8114683"></polygon>
                    </g>
                    <g id="Group-17" transform="translate(41.925000, 74.048780)">
                        <mask id="mask-10" fill="white">
                            <use xlink:href="#path-9"></use>
                        </mask>
                        <g id="Clip-16"></g>
                        <polygon id="Fill-15" fill="#000000" mask="url(#mask-10)" points="15.0500538 -4.84684683 15.0500538 27.3659073 -5.37505375 27.3659073 -5.37505375 -4.84684683"></polygon>
                    </g>
                    <g id="Group-20" transform="translate(41.925000, 0.000000)">
                        <mask id="mask-12" fill="white">
                            <use xlink:href="#path-11"></use>
                        </mask>
                        <g id="Clip-19"></g>
                        <polygon id="Fill-18" fill="#000000" mask="url(#mask-12)" points="15.0500538 27.3834322 15.0500538 -4.82926829 -5.37505375 -4.82926829 -5.37505375 27.3834322"></polygon>
                    </g>
                    <g id="Group-23" transform="translate(10.750000, 65.463415)">
                        <mask id="mask-14" fill="white">
                            <use xlink:href="#path-13"></use>
                        </mask>
                        <g id="Clip-22"></g>
                        <polygon id="Fill-21" fill="#000000" mask="url(#mask-14)" points="28.8788645 4.36887805 4.8375 28.3693327 -9.6051895 13.9512195 14.436175 -10.0492351"></polygon>
                    </g>
                    <g id="Group-26" transform="translate(63.425000, 10.731707)">
                        <mask id="mask-16" fill="white">
                            <use xlink:href="#path-15"></use>
                        </mask>
                        <g id="Clip-25"></g>
                        <polygon id="Fill-24" fill="#000000" mask="url(#mask-16)" points="4.3766475 29.9025717 28.9552325 5.36585366 14.5125 -9.05230244 -10.066042 15.4844585"></polygon>
                    </g>
                    <g id="Group-29" transform="translate(73.100000, 42.926829)">
                        <mask id="mask-18" fill="white">
                            <use xlink:href="#path-17"></use>
                        </mask>
                        <g id="Clip-28"></g>
                        <polygon id="Fill-27" fill="#000000" mask="url(#mask-18)" points="-4.846917 -4.56098634 26.4881075 -4.56098634 26.4881075 15.829279 -4.846917 15.829279"></polygon>
                    </g>
                    <g id="Group-32" transform="translate(0.000000, 42.926829)">
                        <mask id="mask-20" fill="white">
                            <use xlink:href="#path-19"></use>
                        </mask>
                        <g id="Clip-31"></g>
                        <polygon id="Fill-30" fill="#000000" mask="url(#mask-20)" points="-5.3750645 15.56104 25.818834 15.56104 25.818834 -4.82932195 -5.3750645 -4.82932195"></polygon>
                    </g>
                </g>
            </g>
        </g>
    </g>
</svg>